<?xml version="1.0" encoding="utf-8"?>
<!-- Generator: Adobe Illustrator 21.0.0, SVG Export Plug-In . SVG Version: 6.00 Build 0)  -->
<svg version="1.1" id="Layer_1" xmlns="http://www.w3.org/2000/svg" xmlns:xlink="http://www.w3.org/1999/xlink" x="0px" y="0px"
	 width="72px" height="72px" viewBox="0 0 72 72" enable-background="new 0 0 72 72" xml:space="preserve">
<g>
	<g>
		<g>
			<rect x="7.5" y="18.54" fill="#575756" width="4.21" height="28.5"/>
		</g>
		<g>
			<rect x="18.19" y="18.54" fill="#575756" width="4.21" height="28.5"/>
		</g>
		<g>
			<path fill="#575756" d="M64.5,18.54v4.21h-8.7c-1.03-1.59-2.3-3.01-3.76-4.21H64.5z"/>
		</g>
		<g>
			<path fill="#575756" d="M64.5,42.84v4.21H52.04c1.46-1.2,2.72-2.62,3.76-4.21H64.5z"/>
		</g>
		<g>
			<path fill="#575756" d="M64.5,30.69v4.21h-5.85c0.08-0.69,0.12-1.39,0.12-2.1c0-0.71-0.04-1.41-0.12-2.1H64.5z"/>
		</g>
		<path fill="#29A9E1" d="M46.69,20.05c-1.83-0.92-3.89-1.45-6.06-1.5H28.87v28.5h11.75c2.18-0.05,4.23-0.58,6.06-1.5
			c4.67-2.34,7.87-7.17,7.87-12.75S51.36,22.39,46.69,20.05z M40.56,42.84c-0.09,0-0.17,0-0.26,0c-0.09,0-0.17,0-0.26,0h-6.96V22.75
			h6.96c0.09,0,0.17,0,0.26,0c0.09,0,0.17,0,0.26,0c5.43,0.14,9.79,4.58,9.79,10.04S45.99,42.7,40.56,42.84z"/>
	</g>
	<g>
		<path fill="#59595B" d="M2.13,51.25H2.5v2.18H2.13V51.25z"/>
		<path fill="#59595B" d="M4.74,51.25H5.1v2.18h-0.4l-1.23-1.59v1.59H3.1v-2.18h0.37l1.27,1.63V51.25z"/>
		<path fill="#59595B" d="M7.36,51.54c0.21,0.19,0.31,0.45,0.31,0.79c0,0.34-0.1,0.61-0.31,0.8c-0.2,0.2-0.52,0.3-0.94,0.3H5.71
			v-2.18h0.75C6.85,51.25,7.15,51.35,7.36,51.54z M7.3,52.34c0-0.5-0.29-0.75-0.86-0.75H6.08v1.49h0.41c0.26,0,0.47-0.06,0.61-0.19
			C7.23,52.77,7.3,52.58,7.3,52.34z"/>
		<path fill="#59595B" d="M8.15,51.25h0.37v2.18H8.15V51.25z"/>
		<path fill="#59595B" d="M9.43,52.93l-0.22,0.5H8.82l0.96-2.18h0.39l0.96,2.18h-0.39l-0.22-0.5H9.43z M10.37,52.6l-0.4-0.9
			l-0.4,0.9H10.37z"/>
		<path fill="#59595B" d="M13.07,51.25h0.37v2.18h-0.4l-1.23-1.59v1.59h-0.37v-2.18h0.37l1.27,1.63V51.25z"/>
		<path fill="#59595B" d="M14.89,51.25h0.37v2.18h-0.37V51.25z"/>
		<path fill="#59595B" d="M17.5,51.25h0.37v2.18h-0.4l-1.23-1.59v1.59h-0.37v-2.18h0.37l1.27,1.63V51.25z"/>
		<path fill="#59595B" d="M19.13,51.54c-0.11,0-0.19,0.02-0.26,0.07c-0.07,0.04-0.1,0.11-0.1,0.2c0,0.09,0.03,0.16,0.1,0.2
			c0.07,0.05,0.21,0.1,0.44,0.15c0.22,0.05,0.39,0.13,0.51,0.23c0.11,0.1,0.17,0.24,0.17,0.43c0,0.19-0.07,0.34-0.22,0.46
			c-0.14,0.12-0.33,0.18-0.56,0.18c-0.34,0-0.64-0.12-0.91-0.35l0.23-0.28c0.22,0.19,0.45,0.29,0.69,0.29
			c0.12,0,0.21-0.03,0.28-0.08c0.07-0.05,0.1-0.12,0.1-0.2s-0.03-0.15-0.1-0.2c-0.07-0.05-0.18-0.09-0.34-0.13
			c-0.16-0.04-0.28-0.07-0.36-0.11c-0.08-0.03-0.16-0.07-0.22-0.13c-0.13-0.1-0.19-0.25-0.19-0.45c0-0.2,0.07-0.36,0.22-0.47
			c0.15-0.11,0.33-0.16,0.54-0.16c0.14,0,0.28,0.02,0.41,0.07c0.14,0.05,0.26,0.11,0.36,0.19l-0.2,0.28
			c-0.06-0.06-0.15-0.11-0.26-0.14C19.35,51.56,19.24,51.54,19.13,51.54z"/>
		<path fill="#59595B" d="M21.26,51.59v1.84h-0.37v-1.84h-0.66v-0.34h1.69v0.34H21.26z"/>
		<path fill="#59595B" d="M22.32,51.25h0.37v2.18h-0.37V51.25z"/>
		<path fill="#59595B" d="M24.11,51.59v1.84h-0.37v-1.84h-0.66v-0.34h1.69v0.34H24.11z"/>
		<path fill="#59595B" d="M25.66,52.93c0.1,0.12,0.23,0.17,0.41,0.17c0.17,0,0.31-0.06,0.41-0.17c0.1-0.12,0.15-0.27,0.15-0.47
			v-1.21h0.37v1.22c0,0.31-0.09,0.56-0.26,0.72c-0.17,0.17-0.39,0.25-0.66,0.25c-0.27,0-0.49-0.08-0.66-0.25
			c-0.17-0.17-0.26-0.41-0.26-0.72v-1.22h0.37v1.21C25.51,52.66,25.56,52.82,25.66,52.93z"/>
		<path fill="#59595B" d="M28.39,51.59v1.84h-0.37v-1.84h-0.66v-0.34h1.69v0.34H28.39z"/>
		<path fill="#59595B" d="M30.98,51.25v0.35h-1.16v0.58h1.04v0.33h-1.04v0.58h1.2v0.35h-1.57v-2.18H30.98z"/>
		<path fill="#59595B" d="M34.17,53.13c-0.22,0.22-0.49,0.32-0.82,0.32c-0.32,0-0.6-0.11-0.82-0.32c-0.22-0.22-0.33-0.48-0.33-0.8
			c0-0.32,0.11-0.59,0.33-0.8c0.22-0.22,0.49-0.32,0.82-0.32c0.32,0,0.6,0.11,0.82,0.32c0.22,0.22,0.33,0.48,0.33,0.8
			C34.5,52.65,34.39,52.91,34.17,53.13z M33.9,51.77c-0.15-0.15-0.33-0.23-0.55-0.23c-0.22,0-0.4,0.08-0.55,0.23
			c-0.15,0.15-0.22,0.34-0.22,0.56s0.07,0.41,0.22,0.56c0.15,0.15,0.33,0.23,0.55,0.23c0.22,0,0.4-0.08,0.55-0.23
			c0.15-0.15,0.22-0.34,0.22-0.56S34.05,51.92,33.9,51.77z"/>
		<path fill="#59595B" d="M35.33,51.59v0.6h0.97v0.34h-0.97v0.9h-0.37v-2.18h1.45l0,0.34H35.33z"/>
		<path fill="#59595B" d="M39.35,51.54c0.21,0.19,0.31,0.45,0.31,0.79c0,0.34-0.1,0.61-0.31,0.8c-0.2,0.2-0.52,0.3-0.94,0.3H37.7
			v-2.18h0.75C38.84,51.25,39.14,51.35,39.35,51.54z M39.29,52.34c0-0.5-0.29-0.75-0.86-0.75h-0.37v1.49h0.41
			c0.26,0,0.47-0.06,0.61-0.19C39.22,52.77,39.29,52.58,39.29,52.34z"/>
		<path fill="#59595B" d="M40.14,51.25h0.37v2.18h-0.37V51.25z"/>
		<path fill="#59595B" d="M42.62,52.37h0.37v0.75c-0.21,0.23-0.5,0.34-0.88,0.34c-0.32,0-0.59-0.11-0.81-0.32
			c-0.22-0.21-0.33-0.48-0.33-0.8c0-0.32,0.11-0.59,0.33-0.81c0.22-0.22,0.49-0.32,0.8-0.32s0.57,0.09,0.78,0.27l-0.2,0.28
			c-0.09-0.07-0.17-0.12-0.26-0.15c-0.09-0.03-0.19-0.04-0.3-0.04c-0.22,0-0.41,0.07-0.55,0.21c-0.15,0.14-0.22,0.33-0.22,0.56
			c0,0.23,0.07,0.42,0.22,0.56c0.15,0.14,0.32,0.21,0.53,0.21c0.21,0,0.38-0.04,0.52-0.13V52.37z"/>
		<path fill="#59595B" d="M43.47,51.25h0.37v2.18h-0.37V51.25z"/>
		<path fill="#59595B" d="M45.27,51.59v1.84H44.9v-1.84h-0.66v-0.34h1.69v0.34H45.27z"/>
		<path fill="#59595B" d="M46.46,52.93l-0.22,0.5h-0.39l0.96-2.18h0.39l0.96,2.18h-0.39l-0.22-0.5H46.46z M47.41,52.6l-0.4-0.9
			l-0.4,0.9H47.41z"/>
		<path fill="#59595B" d="M48.47,53.43v-2.18h0.37v1.83h0.99v0.35H48.47z"/>
		<path fill="#59595B" d="M52.62,51.25v0.35h-1.16v0.58h1.04v0.33h-1.04v0.58h1.2v0.35h-1.57v-2.18H52.62z"/>
		<path fill="#59595B" d="M54.77,51.54c0.21,0.19,0.31,0.45,0.31,0.79c0,0.34-0.1,0.61-0.31,0.8c-0.2,0.2-0.52,0.3-0.94,0.3h-0.72
			v-2.18h0.75C54.26,51.25,54.56,51.35,54.77,51.54z M54.72,52.34c0-0.5-0.29-0.75-0.86-0.75h-0.37v1.49h0.41
			c0.26,0,0.47-0.06,0.61-0.19C54.65,52.77,54.72,52.58,54.72,52.34z"/>
		<path fill="#59595B" d="M56.05,52.93c0.1,0.12,0.23,0.17,0.41,0.17s0.31-0.06,0.41-0.17c0.1-0.12,0.15-0.27,0.15-0.47v-1.21h0.37
			v1.22c0,0.31-0.09,0.56-0.26,0.72c-0.17,0.17-0.39,0.25-0.66,0.25c-0.27,0-0.49-0.08-0.66-0.25s-0.26-0.41-0.26-0.72v-1.22h0.37
			v1.21C55.9,52.66,55.95,52.82,56.05,52.93z"/>
		<path fill="#59595B" d="M58.95,53.1c0.13,0,0.24-0.02,0.33-0.06c0.09-0.04,0.19-0.11,0.29-0.2l0.24,0.24
			c-0.23,0.26-0.51,0.38-0.84,0.38c-0.33,0-0.6-0.11-0.82-0.32c-0.22-0.21-0.33-0.48-0.33-0.8c0-0.32,0.11-0.59,0.33-0.81
			c0.22-0.22,0.5-0.32,0.84-0.32c0.34,0,0.62,0.12,0.85,0.37l-0.23,0.26c-0.1-0.1-0.2-0.17-0.29-0.21c-0.09-0.04-0.2-0.06-0.33-0.06
			c-0.22,0-0.41,0.07-0.55,0.21c-0.15,0.14-0.22,0.32-0.22,0.55c0,0.22,0.07,0.41,0.22,0.55C58.57,53.02,58.75,53.1,58.95,53.1z"/>
		<path fill="#59595B" d="M60.56,52.93l-0.22,0.5h-0.39l0.96-2.18h0.39l0.96,2.18h-0.39l-0.22-0.5H60.56z M61.5,52.6l-0.4-0.9
			l-0.4,0.9H61.5z"/>
		<path fill="#59595B" d="M63.22,51.59v1.84h-0.37v-1.84h-0.66v-0.34h1.69v0.34H63.22z"/>
		<path fill="#59595B" d="M64.28,51.25h0.37v2.18h-0.37V51.25z"/>
		<path fill="#59595B" d="M67.07,53.13c-0.22,0.22-0.49,0.32-0.82,0.32c-0.32,0-0.6-0.11-0.82-0.32c-0.22-0.22-0.33-0.48-0.33-0.8
			c0-0.32,0.11-0.59,0.33-0.8c0.22-0.22,0.49-0.32,0.82-0.32c0.32,0,0.6,0.11,0.82,0.32c0.22,0.22,0.33,0.48,0.33,0.8
			C67.4,52.65,67.29,52.91,67.07,53.13z M66.8,51.77c-0.15-0.15-0.33-0.23-0.55-0.23c-0.22,0-0.4,0.08-0.55,0.23
			c-0.15,0.15-0.22,0.34-0.22,0.56s0.07,0.41,0.22,0.56c0.15,0.15,0.33,0.23,0.55,0.23c0.22,0,0.4-0.08,0.55-0.23
			c0.15-0.15,0.22-0.34,0.22-0.56S66.95,51.92,66.8,51.77z"/>
		<path fill="#59595B" d="M69.5,51.25h0.37v2.18h-0.4l-1.23-1.59v1.59h-0.37v-2.18h0.37l1.27,1.63V51.25z"/>
	</g>
</g>
</svg>
